<svg width="100" height="100" viewBox="0 0 100 100" fill="none" xmlns="http://www.w3.org/2000/svg">
<path fill-rule="evenodd" clip-rule="evenodd" d="M84.3672 46.4326H100V0H84.3672V46.4326ZM0 46.2941V0.0710449H35.9312V15.2924H25.9147V31.0116H16.2733V46.2941H0ZM42.043 0.0710449V46.3552H78.7608V30.9068H67.912V15.2313H58.3071V0.0710449H42.043ZM16.3093 89.4507L16.3085 89.4655C16.1807 91.7137 16.0529 93.9625 15.9068 96.5505H0.164062V50.0218C2.38034 50.0218 4.59119 50.0152 6.79798 50.0085C12.1784 49.9923 17.5347 49.9762 22.8863 50.0567C24.0205 50.0727 25.2499 50.0089 26.4924 49.9445H26.4925H26.4926H26.4926C30.0104 49.762 33.6326 49.5741 35.4915 51.1746C37.0493 52.5186 36.7912 55.8222 36.5372 59.0732V59.0733V59.0734L36.5372 59.0734C36.4348 60.3851 36.333 61.6881 36.3514 62.8504C36.4022 66.1688 36.3913 69.4915 36.3798 72.956C36.3748 74.4786 36.3697 76.0286 36.3697 77.6177C35.2345 77.74 34.1612 77.8536 33.1188 77.964L33.1108 77.9648L33.1005 77.9659C32.0661 78.0754 31.062 78.1817 30.0579 78.2901C29.9025 78.4735 29.7447 78.6546 29.5869 78.8358C29.4291 79.0171 29.2713 79.1983 29.1157 79.3817C29.8564 79.9572 30.5957 80.5352 31.3352 81.1133L31.3371 81.1148L31.3399 81.117L31.3437 81.12L31.3439 81.1202C32.5652 82.075 33.787 83.0302 35.0159 83.9752C36.1577 84.8546 37.3095 85.7277 38.4934 86.6251L38.4939 86.6255C39.2731 87.2161 40.0661 87.8173 40.8794 88.4377C38.8058 90.3052 36.9007 92.022 35.0459 93.6936L35.0218 93.7154C32.6959 95.8115 30.4483 97.8371 28.0455 100C24.7433 96.4195 21.2306 92.6207 17.718 88.8219C17.2424 89.0315 16.7758 89.2411 16.3093 89.4507ZM42.1797 50.2837H78.7695V96.5679H63.0633V80.3597H58.3066V96.6639H42.1888C42.1797 81.1718 42.1797 65.8631 42.1797 50.2837Z" fill="white"/>
</svg>
