<?xml version="1.0" encoding="utf-8"?>
<!-- Generator: Adobe Illustrator 24.0.2, SVG Export Plug-In . SVG Version: 6.00 Build 0)  -->
<svg version="1.1" id="Camada_1" xmlns="http://www.w3.org/2000/svg" xmlns:xlink="http://www.w3.org/1999/xlink" x="0px" y="0px"
	 viewBox="0 0 641.38 306.93" style="enable-background:new 0 0 641.38 306.93;" xml:space="preserve">
<style type="text/css">
	.st0{fill:#FFFFFF;}
</style>
<g>
	<g>
		<path class="st0" d="M7.33,53.64V0.7h21.15v8.57H15.91V24.9l0.12-0.12c3.38-3.38,8.02-6.16,12.45-5.58v10.12
			c-4.62-1.48-9.44,1.99-12.57,6.18v18.14H7.33z"/>
		<path class="st0" d="M106.18,45.07v8.57H85.04V0.7h21.15v8.57H93.61V24.9l0.12-0.12c3.38-3.38,8.02-6.16,12.45-5.58v10.12
			c-4.62-1.48-9.44,1.99-12.57,6.18v9.57H106.18z"/>
		<path class="st0" d="M175.26,20.06c4.8,3.12,10.06,5.19,13.52,8.88c3.71,3.96,4.69,9.94,3.22,15.08
			c-1.31,4.56-4.66,8.08-9.78,9.62c-3.09,0.93-6.33,0.93-9.42,0c-5.53-1.67-10.06-6.32-10.06-13.94v-1.93h8.57v1.93
			c0,4.06,3.08,6.12,6.22,6.19c2.75,0.06,5.55-1.43,6.32-4.46c0.8-3.13-0.87-5.24-3.16-7.23c-3.83-3.32-9.87-6.16-12.38-8.15
			c-7.02-5.59-7.2-16.74-0.73-22.5c1.39-1.24,3.13-2.21,5.22-2.84c3.09-0.93,6.33-0.93,9.42,0c5.53,1.67,10.06,6.32,10.06,13.94
			v1.93h-8.57v-1.93c0-5.96-6.29-7.7-9.79-5.1C170,12.46,171.25,17.44,175.26,20.06z"/>
		<path class="st0" d="M264.67,9.27v44.37h-8.57V9.27h-10.48V0.7h29.53v8.57H264.67z"/>
		<path class="st0" d="M331.71,53.9V0.96h8.57V53.9H331.71z"/>
		<path class="st0" d="M405.71,53.64L396.83,0.7h8.82l6.61,40.02l6.61-40.02h8.82l-8.88,52.94H405.71z"/>
		<path class="st0" d="M502.96,41.08v-7.87c-4.62-1.48-9.44,1.99-12.57,6.18v14.25h-8.57V15.56c0-8.17,6.69-14.86,14.86-14.86h14.86
			v52.94h-8.57V41.08z M502.96,9.27h-6.29c-2.89,0-5.36,2.01-6.08,4.69l-0.02,0.06c-0.01,0.03-0.02,0.07-0.02,0.1l-0.01,0.05
			c-0.01,0.03-0.02,0.07-0.02,0.1l-0.01,0.05c-0.01,0.04-0.02,0.08-0.02,0.11l0,0.03c-0.01,0.04-0.01,0.08-0.02,0.12l0,0.03
			c-0.01,0.04-0.01,0.09-0.02,0.13l0,0.02c-0.01,0.04-0.01,0.09-0.02,0.14l0,0.02c0,0.05-0.01,0.1-0.01,0.14l0,0.01
			c0,0.05-0.01,0.1-0.01,0.15v0v0v0c0,0.05,0,0.1-0.01,0.15v0c0,0.05,0,0.11,0,0.16v13.23l0.12-0.12c3.38-3.38,8.02-6.16,12.45-5.58
			v-1.76V9.27z"/>
		<path class="st0" d="M576.7,45.07h12.57v8.57h-21.15V0.7h8.57C576.7,16.08,576.7,29.69,576.7,45.07z"/>
	</g>
	<g>
		<path class="st0" d="M419.45,306.93c-0.47,0-0.91-0.03-1.31-0.09c-1.75-0.29-2.69-1.31-2.8-3.07v-8.32
			c0.06-6.31,0.06-12.58,0-18.83c-0.06-1.23,0.18-2.25,0.7-3.07c0.52-0.82,1.31-1.52,2.36-2.1c4.55-2.45,9.14-4.91,13.75-7.36
			c0.58-0.35,1.17-0.67,1.75-0.96c0.52-0.29,1.08-0.58,1.66-0.88c0.82-0.47,1.66-0.93,2.54-1.4c0.7-0.35,1.05-0.93,1.05-1.75v-5.08
			c0-2.04-0.03-4.12-0.09-6.22c0-0.64-0.13-1.09-0.39-1.36c-0.26-0.26-0.72-0.39-1.36-0.39c-1.4-0.12-2.8-0.12-4.2,0
			c-0.7,0-1.2,0.15-1.49,0.44c-0.29,0.29-0.44,0.82-0.44,1.58v6.4c0,0.58-0.09,1.17-0.26,1.75c-0.18,0.58-0.47,1.04-0.88,1.36
			c-0.41,0.32-0.93,0.48-1.58,0.48h-0.35c-3.45,0.06-6.92,0.06-10.42,0c-0.7-0.06-1.26-0.31-1.66-0.74c-0.41-0.44-0.64-1.04-0.7-1.8
			v-3.42c-0.06-1.63-0.09-3.25-0.09-4.86c0-1.6,0.06-3.2,0.17-4.77c0.35-3.56,1.59-6.36,3.72-8.41c2.13-2.04,4.95-3.18,8.45-3.42
			c2.51-0.18,5.02-0.26,7.53-0.26c2.51,0,5.05,0.09,7.62,0.26c1.98,0.06,3.82,0.51,5.52,1.36c1.69,0.85,3.11,2.06,4.25,3.64
			c1.14,1.58,1.91,3.5,2.32,5.78c0.23,1.4,0.35,2.83,0.35,4.29c0.06,2.98,0.09,5.96,0.09,8.93c-0.06,3.86-0.06,7.68,0,11.48
			c0,1.29-0.25,2.38-0.74,3.29c-0.5,0.91-1.3,1.65-2.41,2.23c-3.27,1.7-6.51,3.42-9.72,5.17c-1.17,0.7-2.36,1.37-3.59,2.02
			c-0.7,0.41-1.43,0.79-2.19,1.14c-1.4,0.82-2.8,1.61-4.2,2.36c-0.88,0.41-1.29,1.14-1.23,2.19v5.25c0,0.7,0.09,1.15,0.26,1.36
			c0.17,0.21,0.58,0.31,1.23,0.31c1.63,0.06,3.27,0.06,4.91,0c0.64,0,1.05-0.09,1.23-0.26c0.18-0.17,0.29-0.58,0.35-1.23
			c0.06-0.58,0.15-1.14,0.26-1.66c0.17-0.82,0.54-1.45,1.09-1.88c0.55-0.44,1.24-0.66,2.06-0.66c3.09-0.12,6.19-0.12,9.28,0
			c0.99,0.06,1.8,0.41,2.41,1.05c0.61,0.64,0.92,1.49,0.92,2.54c0.06,4.61,0.06,9.23,0,13.84c0,2.45-1.23,3.71-3.68,3.77H419.45z"/>
		<path class="st0" d="M459.83,262.34c0-5.55,0.03-11.12,0.09-16.73c0-1.75,0.21-3.47,0.61-5.17c0.47-2.1,1.27-3.87,2.41-5.3
			c1.14-1.43,2.53-2.54,4.16-3.33c1.63-0.79,3.44-1.21,5.43-1.27c2.45-0.12,4.93-0.18,7.45-0.18c2.51,0,4.99,0.06,7.44,0.18
			c3.5,0.23,6.34,1.39,8.5,3.46c2.16,2.07,3.42,4.83,3.77,8.28c0.23,2.28,0.35,4.55,0.35,6.83c0.06,14.07,0.06,28.12,0,42.13
			c0,1.35-0.1,2.67-0.31,3.99c-0.21,1.31-0.57,2.61-1.09,3.9c-0.94,2.1-2.22,3.77-3.86,4.99c-1.63,1.23-3.59,2.02-5.87,2.37
			c-1.52,0.23-3.04,0.35-4.56,0.35c-3.45,0.06-6.89,0.06-10.34,0c-1.58-0.06-3.11-0.29-4.6-0.7c-1.49-0.41-2.88-1.08-4.16-2.02
			c-1.46-1.05-2.58-2.28-3.37-3.68c-0.79-1.4-1.33-2.98-1.62-4.73c-0.29-1.63-0.41-3.3-0.35-4.99c-0.06-5.49-0.09-10.95-0.09-16.38
			V262.34z M484.62,248.15c0-0.99-0.18-1.66-0.52-2.01c-0.35-0.35-0.99-0.53-1.93-0.53h-3.07c-1.11,0-1.9,0.07-2.36,0.22
			c-0.47,0.15-0.78,0.45-0.92,0.92c-0.15,0.47-0.22,1.23-0.22,2.28v40.64c0.06,0.64,0.22,1.09,0.48,1.36s0.71,0.39,1.36,0.39
			c1.63,0.06,3.27,0.06,4.91,0c0.88,0.06,1.46-0.06,1.75-0.35c0.29-0.29,0.47-0.88,0.52-1.75V248.15z"/>
		<path class="st0" d="M508.62,306.93c-0.47,0-0.91-0.03-1.31-0.09c-1.75-0.29-2.69-1.31-2.8-3.07v-8.32
			c0.06-6.31,0.06-12.58,0-18.83c-0.06-1.23,0.18-2.25,0.7-3.07c0.52-0.82,1.31-1.52,2.36-2.1c4.55-2.45,9.14-4.91,13.75-7.36
			c0.58-0.35,1.17-0.67,1.75-0.96c0.52-0.29,1.08-0.58,1.66-0.88c0.82-0.47,1.66-0.93,2.54-1.4c0.7-0.35,1.05-0.93,1.05-1.75v-5.08
			c0-2.04-0.03-4.12-0.09-6.22c0-0.64-0.13-1.09-0.39-1.36c-0.26-0.26-0.72-0.39-1.36-0.39c-1.4-0.12-2.8-0.12-4.2,0
			c-0.7,0-1.2,0.15-1.49,0.44c-0.29,0.29-0.44,0.82-0.44,1.58v6.4c0,0.58-0.09,1.17-0.26,1.75c-0.18,0.58-0.47,1.04-0.88,1.36
			c-0.41,0.32-0.93,0.48-1.58,0.48h-0.35c-3.45,0.06-6.92,0.06-10.42,0c-0.7-0.06-1.26-0.31-1.66-0.74c-0.41-0.44-0.64-1.04-0.7-1.8
			v-3.42c-0.06-1.63-0.09-3.25-0.09-4.86c0-1.6,0.06-3.2,0.17-4.77c0.35-3.56,1.59-6.36,3.72-8.41c2.13-2.04,4.95-3.18,8.45-3.42
			c2.51-0.18,5.02-0.26,7.53-0.26c2.51,0,5.05,0.09,7.62,0.26c1.98,0.06,3.82,0.51,5.52,1.36c1.69,0.85,3.11,2.06,4.25,3.64
			c1.14,1.58,1.91,3.5,2.32,5.78c0.23,1.4,0.35,2.83,0.35,4.29c0.06,2.98,0.09,5.96,0.09,8.93c-0.06,3.86-0.06,7.68,0,11.48
			c0,1.29-0.25,2.38-0.74,3.29c-0.5,0.91-1.3,1.65-2.41,2.23c-3.27,1.7-6.51,3.42-9.72,5.17c-1.17,0.7-2.36,1.37-3.59,2.02
			c-0.7,0.41-1.43,0.79-2.19,1.14c-1.4,0.82-2.8,1.61-4.21,2.36c-0.88,0.41-1.29,1.14-1.23,2.19v5.25c0,0.7,0.09,1.15,0.26,1.36
			c0.17,0.21,0.58,0.31,1.23,0.31c1.63,0.06,3.27,0.06,4.91,0c0.64,0,1.05-0.09,1.23-0.26c0.18-0.17,0.29-0.58,0.35-1.23
			c0.06-0.58,0.15-1.14,0.26-1.66c0.17-0.82,0.54-1.45,1.09-1.88c0.55-0.44,1.24-0.66,2.06-0.66c3.09-0.12,6.19-0.12,9.28,0
			c0.99,0.06,1.8,0.41,2.41,1.05s0.92,1.49,0.92,2.54c0.06,4.61,0.06,9.23,0,13.84c0,2.45-1.23,3.71-3.68,3.77H508.62z"/>
		<path class="st0" d="M549,262.34c0-5.55,0.03-11.12,0.09-16.73c0-1.75,0.21-3.47,0.61-5.17c0.47-2.1,1.27-3.87,2.41-5.3
			c1.14-1.43,2.53-2.54,4.16-3.33c1.63-0.79,3.44-1.21,5.43-1.27c2.45-0.12,4.93-0.18,7.45-0.18c2.51,0,4.99,0.06,7.44,0.18
			c3.5,0.23,6.34,1.39,8.5,3.46c2.16,2.07,3.42,4.83,3.77,8.28c0.23,2.28,0.35,4.55,0.35,6.83c0.06,14.07,0.06,28.12,0,42.13
			c0,1.35-0.1,2.67-0.31,3.99c-0.21,1.31-0.57,2.61-1.09,3.9c-0.94,2.1-2.22,3.77-3.86,4.99c-1.63,1.23-3.59,2.02-5.87,2.37
			c-1.52,0.23-3.04,0.35-4.56,0.35c-3.45,0.06-6.89,0.06-10.34,0c-1.58-0.06-3.11-0.29-4.6-0.7c-1.49-0.41-2.88-1.08-4.16-2.02
			c-1.46-1.05-2.58-2.28-3.37-3.68s-1.33-2.98-1.62-4.73c-0.29-1.63-0.41-3.3-0.35-4.99c-0.06-5.49-0.09-10.95-0.09-16.38V262.34z
			 M573.79,248.15c0-0.99-0.18-1.66-0.52-2.01c-0.35-0.35-0.99-0.53-1.93-0.53h-3.07c-1.11,0-1.9,0.07-2.36,0.22
			c-0.47,0.15-0.78,0.45-0.92,0.92c-0.15,0.47-0.22,1.23-0.22,2.28v40.64c0.06,0.64,0.22,1.09,0.48,1.36
			c0.26,0.26,0.71,0.39,1.36,0.39c1.63,0.06,3.27,0.06,4.91,0c0.88,0.06,1.46-0.06,1.75-0.35c0.29-0.29,0.47-0.88,0.52-1.75V248.15z
			"/>
	</g>
	<g>
		<circle class="st0" cx="623.73" cy="87.06" r="17.65"/>
		<circle class="st0" cx="623.73" cy="139.95" r="17.65"/>
		<circle class="st0" cx="623.73" cy="192.85" r="17.65"/>
	</g>
	<g>
		<path class="st0" d="M39.62,189.66c8.38,0,16.76-5.5,16.76-16.5h22.86c0,26.03-19.81,39.05-39.62,39.05
			C19.81,212.21,0,199.2,0,173.16v-66.8c0-26.03,19.81-39.05,39.62-39.05c19.81,0,39.62,13.02,39.62,39.05H56.38
			c0-11-8.38-16.5-16.76-16.5c-8.38,0-16.76,5.5-16.76,16.5v66.8C22.86,184.16,31.24,189.66,39.62,189.66z"/>
		<path class="st0" d="M134.38,67.32c19.81,0,39.62,13.02,39.62,39.05v66.8c0,26.03-19.81,39.05-39.62,39.05
			c-19.81,0-39.62-13.02-39.62-39.05v-66.8C94.76,80.33,114.57,67.32,134.38,67.32z M151.15,173.16v-66.8c0-11-8.38-16.5-16.76-16.5
			c-8.38,0-16.76,5.5-16.76,16.5v66.8c0,11,8.38,16.5,16.76,16.5C142.77,189.66,151.15,184.16,151.15,173.16z"/>
		<path class="st0" d="M212.38,210.35h-22.86V69.18h22.86l28.66,47.6v-47.6h22.86v141.17h-22.86v-50.86l-28.66-47.44V210.35z"/>
		<path class="st0" d="M302.95,210.35L279.28,69.18h23.51l17.63,106.72l17.63-106.72h23.51l-23.66,141.17H302.95z"/>
		<path class="st0" d="M376.99,211.04V69.87h22.86v141.17H376.99z"/>
		<path class="st0" d="M494.49,170.72c0,21.79-17.83,39.62-39.62,39.62h-39.62V69.18h39.62c21.79,0,39.62,17.83,39.62,39.62V170.72z
			 M438.1,187.49h16.76c9.18,0,16.76-7.59,16.76-16.76V108.8c0-9.17-7.59-16.76-16.76-16.76H438.1V187.49z"/>
		<path class="st0" d="M566.39,176.86v-20.99c-12.33-3.94-25.16,5.31-33.53,16.49v37.99h-22.86V108.8
			c0-21.79,17.83-39.62,39.62-39.62h39.62v141.16h-22.86V176.86z M566.39,92.04h-16.76c-7.71,0-14.3,5.36-16.21,12.51l-0.04,0.16
			c-0.02,0.09-0.04,0.18-0.07,0.27l-0.03,0.13c-0.02,0.09-0.04,0.18-0.06,0.27l-0.03,0.13c-0.02,0.1-0.04,0.2-0.06,0.31l-0.01,0.09
			c-0.02,0.11-0.04,0.22-0.06,0.33l-0.01,0.08c-0.02,0.11-0.04,0.23-0.05,0.35l-0.01,0.06c-0.02,0.12-0.03,0.24-0.04,0.37
			l-0.01,0.05c-0.01,0.13-0.02,0.25-0.03,0.38l0,0.03c-0.01,0.13-0.02,0.26-0.03,0.4v0v0.01v0.01c-0.01,0.14-0.01,0.27-0.02,0.41
			v0.01c0,0.14-0.01,0.28-0.01,0.42v35.29l0.33-0.33c9.02-9.02,21.4-16.41,33.2-14.88v-4.69V92.04z"/>
	</g>
</g>
</svg>
